IKResults
version=1
nRows=13
nColumns=40
inDegrees=yes

Units are S.I. units (second, meters, Newtons, ...)
Angles are in degrees.

endheader
time	pelvis_tilt	pelvis_list	pelvis_rotation	pelvis_tx	pelvis_ty	pelvis_tz	hip_flexion_r	hip_adduction_r	hip_rotation_r	knee_angle_r	knee_angle_r_beta	ankle_angle_r	subtalar_angle_r	mtp_angle_r	hip_flexion_l	hip_adduction_l	hip_rotation_l	knee_angle_l	knee_angle_l_beta	ankle_angle_l	subtalar_angle_l	mtp_angle_l	lumbar_extension	lumbar_bending	lumbar_rotation	arm_flex_r	arm_add_r	arm_rot_r	elbow_flex_r	pro_sup_r	wrist_flex_r	wrist_dev_r	arm_flex_l	arm_add_l	arm_rot_l	elbow_flex_l	pro_sup_l	wrist_flex_l	wrist_dev_l
      0.86000000	     18.69258480	      4.11627599	     -5.00352554	      0.16996422	      0.94355988	     -1.01986633	    -15.37589498	     -9.78805638	     -5.87994969	    -58.37710500	     -1.01887269	    -19.58548910	    -14.84255185	      6.66552295	     -8.33044145	     -4.98657678	     21.57553983	    -15.99935746	     -0.27924147	      2.76996382	     -4.76248597	     -5.73334646	    -23.87508783	     -5.69224852	     -1.32021218	      7.97664451	    -12.56644377	     -1.71853788	     35.00067808	     89.95437384	      0.00000000	      0.00000000	     -8.26011615	      7.11433958	     10.31899291	     15.74328854	     89.95437384	      0.00000000	      0.00000000
      0.87000000	     18.80985755	      4.25117754	     -5.54524969	      0.18069113	      0.94418481	     -1.02013969	    -13.65024828	    -10.16696481	     -5.24882227	    -60.75575829	     -1.06038802	    -17.04864748	    -15.33944082	     16.03185213	     -9.55275671	     -5.44646376	     22.06575592	    -15.24703471	     -0.26611096	      3.12088746	     -5.50058779	     -7.02836464	    -23.87509280	     -5.98491796	     -1.16310113	      7.60100824	    -12.35379356	     -1.49814637	     33.78374381	     89.95437384	      0.00000000	      0.00000000	     -7.52684366	      7.41053570	     10.31899455	     16.49519759	     89.95437384	      0.00000000	      0.00000000
      0.88000000	     19.19698089	      3.97585504	     -5.29568941	      0.19116222	      0.94546558	     -1.02117919	    -12.68679586	    -10.00225208	     -5.51469659	    -62.25431673	     -1.08654280	    -15.96076647	    -15.69930633	     15.73771494	    -10.83060001	     -5.24908900	     22.12697910	    -15.10394778	     -0.26361362	      3.47885425	     -5.61968701	     -7.00983277	    -24.34562400	     -5.59287290	     -1.55162312	      7.07680019	    -12.17267505	     -1.43856913	     32.94662703	     89.95437384	      0.00000000	      0.00000000	     -6.50339170	      7.73313718	     10.26604077	     16.91798318	     89.95437384	      0.00000000	      0.00000000
      0.89000000	     19.43088979	      3.75348928	     -5.20184457	      0.20181624	      0.94657682	     -1.02177586	    -11.60636620	     -9.68525741	     -5.29542662	    -63.53721304	     -1.10893357	    -12.74155346	    -16.44465731	     15.22259408	    -12.12537171	     -5.20734820	     21.79883486	    -14.55524510	     -0.25403695	      4.00536242	     -6.04984555	     -7.05606322	    -24.54528903	     -5.34870293	     -1.80135147	      6.66627051	    -11.86148920	     -1.43409266	     31.63627650	     89.95437384	      0.00000000	      0.00000000	     -5.47897019	      8.08274263	     10.28359343	     17.29886913	     89.95437384	      0.00000000	      0.00000000
      0.90000000	     19.58487193	      3.49865396	     -4.98967356	      0.21198736	      0.94757459	     -1.02247879	    -10.38119220	     -9.30127837	     -5.21916059	    -64.57459849	     -1.12703936	    -11.31631820	    -16.15395982	     14.84983266	    -13.21176543	     -5.06645878	     21.51690976	    -14.16667636	     -0.24725515	      4.39094127	     -6.20511816	     -7.05427627	    -24.75399754	     -5.03162706	     -2.13982036	      6.20441648	    -11.57246055	     -1.50426051	     30.52864358	     89.95437384	      0.00000000	      0.00000000	     -4.34492199	      8.44817252	     10.30350564	     17.63480104	     89.95437384	      0.00000000	      0.00000000
      0.91000000	     19.70647036	      3.23633821	     -4.67662278	      0.22231628	      0.94847089	     -1.02341708	     -9.18359726	     -8.88765172	     -5.24255362	    -65.32997564	     -1.14022318	     -9.53181169	    -15.94779175	     14.42795123	    -14.23201361	     -4.89369649	     21.22649947	    -13.83041297	     -0.24138624	      4.78321702	     -6.21503352	     -7.04968202	    -24.91319782	     -4.64402819	     -2.51536947	      5.62331242	    -11.39287422	     -1.42704166	     29.53519415	     89.95437384	      0.00000000	      0.00000000	     -3.13319644	      8.78891866	     10.48779724	     17.92718762	     89.95437384	      0.00000000	      0.00000000
      0.92000000	     19.77873404	      2.92490676	     -4.35636649	      0.23243909	      0.94929908	     -1.02411907	     -7.98105176	     -8.35482116	     -5.24273426	    -65.77336145	     -1.14796172	     -8.11636717	    -15.55685789	     14.02795595	    -15.21410741	     -4.65780575	     20.73112498	    -13.46277268	     -0.23496971	      5.18222769	     -6.14626221	     -7.03240123	    -25.02630930	     -4.22570898	     -2.89437083	      5.06839549	    -11.16961849	     -1.39098910	     28.54601369	     89.95437384	      0.00000000	      0.00000000	     -1.89488343	      9.16967020	     10.44348921	     18.09812598	     89.95437384	      0.00000000	      0.00000000
      0.93000000	     19.81819689	      2.60886273	     -3.97515329	      0.24269460	      0.94998422	     -1.02499547	     -6.81934966	     -7.79401721	     -5.32223588	    -65.93786015	     -1.15083276	     -6.63959198	    -15.17531327	     13.54222236	    -16.12869363	     -4.40758656	     20.24070800	    -13.17402051	     -0.22993003	      5.68283156	     -5.86654059	     -6.96199488	    -25.09550637	     -3.74850108	     -3.24086955	      4.39502276	    -11.03103254	     -1.27023882	     27.64727361	     89.95437384	      0.00000000	      0.00000000	     -0.62233755	      9.50281634	     10.55238816	     18.35960552	     89.95437384	      0.00000000	      0.00000000
      0.94000000	     19.90295815	      2.35948368	     -3.59945395	      0.25288128	      0.95072894	     -1.02600727	     -5.79572536	     -7.33036802	     -5.44413092	    -65.74085038	     -1.14739429	     -5.34964677	    -14.68252657	     12.71825189	    -17.30697163	     -4.40152456	     19.07616161	    -12.38459815	     -0.21615201	      6.27732931	     -4.46350848	     -6.80332733	    -25.21941529	     -3.31707704	     -3.66988502	      3.71111424	    -10.93206776	     -1.10034006	     26.85568775	     89.95437384	      0.00000000	      0.00000000	      0.63275727	      9.76388350	     11.16400128	     18.65805496	     89.95437384	      0.00000000	      0.00000000
      0.95000000	     19.74052897	      2.21589971	     -3.30683878	      0.26284992	      0.95079988	     -1.02694869	     -4.36740762	     -7.08423724	     -5.64346321	    -65.53546046	     -1.14380956	     -4.44030995	    -14.45078980	     12.34812147	    -17.86476856	     -4.26279709	     19.21810234	    -12.29921549	     -0.21466181	      6.67416243	     -4.37875673	     -6.69525329	    -25.07839861	     -3.00759833	     -3.96815198	      2.94276156	    -10.87546657	     -0.97144727	     26.17246307	     89.95437384	      0.00000000	      0.00000000	      1.80069278	     10.10827746	     11.13414427	     19.23401114	     89.95437384	      0.00000000	      0.00000000
      0.96000000	     19.63076901	      1.77294638	     -3.07011447	      0.27280718	      0.95102859	     -1.02721486	     -3.20487426	     -6.07867005	     -5.26190810	    -64.84430283	     -1.13174659	     -2.41768428	    -14.44360587	     11.89845865	    -18.59624581	     -3.85480705	     18.70971686	    -12.04974696	     -0.21030776	      7.24277402	     -4.50822040	     -6.66035639	    -25.00007901	     -2.47022838	     -4.09809017	      2.31876245	    -10.72973248	     -0.90769666	     25.18756976	     89.95437384	      0.00000000	      0.00000000	      3.03620592	     10.42193201	     11.28458216	     19.64135548	     89.95437384	      0.00000000	      0.00000000
      0.97000000	     19.42560626	      1.57845551	     -2.83016748	      0.28294497	      0.95086617	     -1.02817692	     -1.91330413	     -5.78035362	     -5.51669026	    -64.02687867	     -1.11747984	     -1.45432095	    -14.24291103	     11.58411869	    -19.08082697	     -3.68243745	     18.82741487	    -11.99184203	     -0.20929713	      7.62087475	     -4.34535924	     -6.56832919	    -24.79211907	     -2.09286936	     -4.26521367	      1.51384097	    -10.73113861	     -0.83955073	     24.47450501	     89.95437384	      0.00000000	      0.00000000	      4.15406823	     10.64694756	     11.43809164	     20.32295763	     89.95437384	      0.00000000	      0.00000000
      0.98000000	     19.21275335	      1.35363158	     -2.64851732	      0.29296050	      0.95062173	     -1.02882726	     -0.68031737	     -5.32907947	     -5.55177960	    -62.89211128	     -1.09767442	     -0.38967192	    -14.04525163	     11.26317894	    -19.50941095	     -3.48222513	     18.60343953	    -12.03725672	     -0.21008976	      8.06704356	     -4.24757678	     -6.49033439	    -24.58604180	     -1.73152268	     -4.37356747	      0.78842054	    -10.68585329	     -0.82591132	     23.70012809	     89.95437384	      0.00000000	      0.00000000	      5.25227584	     10.88533450	     11.64633473	     21.02644309	     89.95437384	      0.00000000	      0.00000000
